<svg width="100%" viewBox="0 0 680 690" xmlns="http://www.w3.org/2000/svg">
  

  <rect width="680" height="680" fill="#0f0e1a" style="fill:rgb(15, 14, 26);stroke:none;color:rgb(255, 255, 255);stroke-width:1px;stroke-linecap:butt;stroke-linejoin:miter;opacity:1;font-family:&quot;Anthropic Sans&quot;, -apple-system, BlinkMacSystemFont, &quot;Segoe UI&quot;, sans-serif;font-size:16px;font-weight:400;text-anchor:start;dominant-baseline:auto"/>

  <!-- Outer glow rings -->
  <circle cx="340" cy="340" r="260" fill="#4c1d95" opacity="0.12" style="fill:rgb(76, 29, 149);stroke:none;color:rgb(255, 255, 255);stroke-width:1px;stroke-linecap:butt;stroke-linejoin:miter;opacity:0.263889;font-family:&quot;Anthropic Sans&quot;, -apple-system, BlinkMacSystemFont, &quot;Segoe UI&quot;, sans-serif;font-size:16px;font-weight:400;text-anchor:start;dominant-baseline:auto"/>
  <circle cx="340" cy="340" r="200" fill="#6d28d9" opacity="0.18" style="fill:rgb(109, 40, 217);stroke:none;color:rgb(255, 255, 255);stroke-width:1px;stroke-linecap:butt;stroke-linejoin:miter;opacity:0.487051;font-family:&quot;Anthropic Sans&quot;, -apple-system, BlinkMacSystemFont, &quot;Segoe UI&quot;, sans-serif;font-size:16px;font-weight:400;text-anchor:start;dominant-baseline:auto"/>
  <circle cx="340" cy="340" r="150" fill="#7c3aed" opacity="0.22" style="fill:rgb(124, 58, 237);stroke:none;color:rgb(255, 255, 255);stroke-width:1px;stroke-linecap:butt;stroke-linejoin:miter;opacity:0.487051;font-family:&quot;Anthropic Sans&quot;, -apple-system, BlinkMacSystemFont, &quot;Segoe UI&quot;, sans-serif;font-size:16px;font-weight:400;text-anchor:start;dominant-baseline:auto"/>

  <!-- Dashed orbit ring -->
  <circle cx="340" cy="340" r="230" fill="none" stroke="#8b5cf6" stroke-width="0.8" stroke-dasharray="6 8" opacity="0.25" style="fill:none;stroke:rgb(139, 92, 246);color:rgb(255, 255, 255);stroke-width:0.8px;stroke-dasharray:6px, 8px;stroke-linecap:butt;stroke-linejoin:miter;opacity:0.25;font-family:&quot;Anthropic Sans&quot;, -apple-system, BlinkMacSystemFont, &quot;Segoe UI&quot;, sans-serif;font-size:16px;font-weight:400;text-anchor:start;dominant-baseline:auto"/>

  <!-- Rock body — lumpy organic shape -->
  <path d="M340,165 C390,150 440,170 465,205 C498,248 505,285 498,325 C492,360 510,388 495,418 C478,452 448,470 415,478 C385,486 355,492 325,485 C292,477 262,460 242,432 C218,400 215,365 220,330 C225,292 212,258 228,222 C246,182 290,182 340,165 Z" fill="#3b0764" opacity="0.9" style="fill:rgb(59, 7, 100);stroke:none;color:rgb(255, 255, 255);stroke-width:1px;stroke-linecap:butt;stroke-linejoin:miter;opacity:0.9;font-family:&quot;Anthropic Sans&quot;, -apple-system, BlinkMacSystemFont, &quot;Segoe UI&quot;, sans-serif;font-size:16px;font-weight:400;text-anchor:start;dominant-baseline:auto"/>
  <path d="M340,165 C390,150 440,170 465,205 C498,248 505,285 498,325 C492,360 510,388 495,418 C478,452 448,470 415,478 C385,486 355,492 325,485 C292,477 262,460 242,432 C218,400 215,365 220,330 C225,292 212,258 228,222 C246,182 290,182 340,165 Z" fill="#5b21b6" opacity="0.7" style="fill:rgb(91, 33, 182);stroke:none;color:rgb(255, 255, 255);stroke-width:1px;stroke-linecap:butt;stroke-linejoin:miter;opacity:0.7;font-family:&quot;Anthropic Sans&quot;, -apple-system, BlinkMacSystemFont, &quot;Segoe UI&quot;, sans-serif;font-size:16px;font-weight:400;text-anchor:start;dominant-baseline:auto"/>
  <path d="M340,175 C383,162 428,180 452,212 C480,250 485,288 479,322 C474,352 488,378 475,405 C460,435 433,450 403,458 C376,465 350,470 323,464 C294,457 268,442 250,417 C230,389 228,358 233,326 C238,292 226,262 241,230 C257,194 297,190 340,175 Z" fill="#6d28d9" opacity="0.85" style="fill:rgb(109, 40, 217);stroke:none;color:rgb(255, 255, 255);stroke-width:1px;stroke-linecap:butt;stroke-linejoin:miter;opacity:0.85;font-family:&quot;Anthropic Sans&quot;, -apple-system, BlinkMacSystemFont, &quot;Segoe UI&quot;, sans-serif;font-size:16px;font-weight:400;text-anchor:start;dominant-baseline:auto"/>

  <!-- Surface facets -->
  <path d="M340,175 L290,220 L250,290 L242,360 L270,430 L340,475 L410,470 L460,410 L478,335 L458,255 L410,195 Z" fill="#7c3aed" opacity="0.3" style="fill:rgb(124, 58, 237);stroke:none;color:rgb(255, 255, 255);stroke-width:1px;stroke-linecap:butt;stroke-linejoin:miter;opacity:0.3;font-family:&quot;Anthropic Sans&quot;, -apple-system, BlinkMacSystemFont, &quot;Segoe UI&quot;, sans-serif;font-size:16px;font-weight:400;text-anchor:start;dominant-baseline:auto"/>
  <path d="M300,185 L260,250 L248,330 L270,415 L330,468" stroke="#a78bfa" stroke-width="0.8" fill="none" opacity="0.2" style="fill:none;stroke:rgb(167, 139, 250);color:rgb(255, 255, 255);stroke-width:0.8px;stroke-linecap:butt;stroke-linejoin:miter;opacity:0.2;font-family:&quot;Anthropic Sans&quot;, -apple-system, BlinkMacSystemFont, &quot;Segoe UI&quot;, sans-serif;font-size:16px;font-weight:400;text-anchor:start;dominant-baseline:auto"/>
  <path d="M370,170 L420,210 L460,275 L468,350 L445,420" stroke="#a78bfa" stroke-width="0.8" fill="none" opacity="0.2" style="fill:none;stroke:rgb(167, 139, 250);color:rgb(255, 255, 255);stroke-width:0.8px;stroke-linecap:butt;stroke-linejoin:miter;opacity:0.2;font-family:&quot;Anthropic Sans&quot;, -apple-system, BlinkMacSystemFont, &quot;Segoe UI&quot;, sans-serif;font-size:16px;font-weight:400;text-anchor:start;dominant-baseline:auto"/>

  <!-- Cracks -->
  <path d="M330,195 L338,260 L348,290 L342,360" stroke="#2e1065" stroke-width="2" fill="none" opacity="0.7" stroke-linecap="round" style="fill:none;stroke:rgb(46, 16, 101);color:rgb(255, 255, 255);stroke-width:2px;stroke-linecap:round;stroke-linejoin:miter;opacity:0.7;font-family:&quot;Anthropic Sans&quot;, -apple-system, BlinkMacSystemFont, &quot;Segoe UI&quot;, sans-serif;font-size:16px;font-weight:400;text-anchor:start;dominant-baseline:auto"/>
  <path d="M348,290 L380,310 L405,300" stroke="#2e1065" stroke-width="1.5" fill="none" opacity="0.5" stroke-linecap="round" style="fill:none;stroke:rgb(46, 16, 101);color:rgb(255, 255, 255);stroke-width:1.5px;stroke-linecap:round;stroke-linejoin:miter;opacity:0.5;font-family:&quot;Anthropic Sans&quot;, -apple-system, BlinkMacSystemFont, &quot;Segoe UI&quot;, sans-serif;font-size:16px;font-weight:400;text-anchor:start;dominant-baseline:auto"/>
  <path d="M280,260 L310,295 L300,340" stroke="#2e1065" stroke-width="1.2" fill="none" opacity="0.4" stroke-linecap="round" style="fill:none;stroke:rgb(46, 16, 101);color:rgb(255, 255, 255);stroke-width:1.2px;stroke-linecap:round;stroke-linejoin:miter;opacity:0.4;font-family:&quot;Anthropic Sans&quot;, -apple-system, BlinkMacSystemFont, &quot;Segoe UI&quot;, sans-serif;font-size:16px;font-weight:400;text-anchor:start;dominant-baseline:auto"/>
  <path d="M390,380 L420,400 L415,435" stroke="#2e1065" stroke-width="1" fill="none" opacity="0.4" stroke-linecap="round" style="fill:none;stroke:rgb(46, 16, 101);color:rgb(255, 255, 255);stroke-width:1px;stroke-linecap:round;stroke-linejoin:miter;opacity:0.4;font-family:&quot;Anthropic Sans&quot;, -apple-system, BlinkMacSystemFont, &quot;Segoe UI&quot;, sans-serif;font-size:16px;font-weight:400;text-anchor:start;dominant-baseline:auto"/>

  <!-- Highlight (top-left sheen) -->
  <path d="M285,200 C310,185 355,182 385,198 C368,192 330,190 285,200 Z" fill="#c4b5fd" opacity="0.25" style="fill:rgb(196, 181, 253);stroke:none;color:rgb(255, 255, 255);stroke-width:1px;stroke-linecap:butt;stroke-linejoin:miter;opacity:0.25;font-family:&quot;Anthropic Sans&quot;, -apple-system, BlinkMacSystemFont, &quot;Segoe UI&quot;, sans-serif;font-size:16px;font-weight:400;text-anchor:start;dominant-baseline:auto"/>
  <ellipse cx="295" cy="235" rx="32" ry="18" fill="#c4b5fd" opacity="0.12" transform="rotate(-20,295,235)" style="fill:rgb(196, 181, 253);stroke:none;color:rgb(255, 255, 255);stroke-width:1px;stroke-linecap:butt;stroke-linejoin:miter;opacity:0.12;font-family:&quot;Anthropic Sans&quot;, -apple-system, BlinkMacSystemFont, &quot;Segoe UI&quot;, sans-serif;font-size:16px;font-weight:400;text-anchor:start;dominant-baseline:auto"/>

  <!-- Inner dark shadow (bottom) -->
  <path d="M250,400 C265,445 305,472 340,478 C375,484 418,468 445,435 C420,460 378,478 340,474 C302,470 265,448 250,400 Z" fill="#1e0040" opacity="0.6" style="fill:rgb(30, 0, 64);stroke:none;color:rgb(255, 255, 255);stroke-width:1px;stroke-linecap:butt;stroke-linejoin:miter;opacity:0.6;font-family:&quot;Anthropic Sans&quot;, -apple-system, BlinkMacSystemFont, &quot;Segoe UI&quot;, sans-serif;font-size:16px;font-weight:400;text-anchor:start;dominant-baseline:auto"/>

  <!-- Tiny surface sparkles -->
  <circle cx="298" cy="222" r="2.5" fill="#ddd6fe" opacity="0.7" style="fill:rgb(221, 214, 254);stroke:none;color:rgb(255, 255, 255);stroke-width:1px;stroke-linecap:butt;stroke-linejoin:miter;opacity:0.7;font-family:&quot;Anthropic Sans&quot;, -apple-system, BlinkMacSystemFont, &quot;Segoe UI&quot;, sans-serif;font-size:16px;font-weight:400;text-anchor:start;dominant-baseline:auto"/>
  <circle cx="388" cy="198" r="1.8" fill="#ede9fe" opacity="0.5" style="fill:rgb(237, 233, 254);stroke:none;color:rgb(255, 255, 255);stroke-width:1px;stroke-linecap:butt;stroke-linejoin:miter;opacity:0.5;font-family:&quot;Anthropic Sans&quot;, -apple-system, BlinkMacSystemFont, &quot;Segoe UI&quot;, sans-serif;font-size:16px;font-weight:400;text-anchor:start;dominant-baseline:auto"/>
  <circle cx="452" cy="298" r="1.5" fill="#c4b5fd" opacity="0.4" style="fill:rgb(196, 181, 253);stroke:none;color:rgb(255, 255, 255);stroke-width:1px;stroke-linecap:butt;stroke-linejoin:miter;opacity:0.4;font-family:&quot;Anthropic Sans&quot;, -apple-system, BlinkMacSystemFont, &quot;Segoe UI&quot;, sans-serif;font-size:16px;font-weight:400;text-anchor:start;dominant-baseline:auto"/>
  <circle cx="262" cy="355" r="1.8" fill="#ddd6fe" opacity="0.4" style="fill:rgb(221, 214, 254);stroke:none;color:rgb(255, 255, 255);stroke-width:1px;stroke-linecap:butt;stroke-linejoin:miter;opacity:0.4;font-family:&quot;Anthropic Sans&quot;, -apple-system, BlinkMacSystemFont, &quot;Segoe UI&quot;, sans-serif;font-size:16px;font-weight:400;text-anchor:start;dominant-baseline:auto"/>

  <!-- Corner brackets -->
  <path d="M48,48 L88,48 M48,48 L48,88" stroke="#7c3aed" stroke-width="1.5" opacity="0.4" style="fill:rgb(0, 0, 0);stroke:rgb(124, 58, 237);color:rgb(255, 255, 255);stroke-width:1.5px;stroke-linecap:butt;stroke-linejoin:miter;opacity:0.4;font-family:&quot;Anthropic Sans&quot;, -apple-system, BlinkMacSystemFont, &quot;Segoe UI&quot;, sans-serif;font-size:16px;font-weight:400;text-anchor:start;dominant-baseline:auto"/>
  <path d="M632,48 L592,48 M632,48 L632,88" stroke="#7c3aed" stroke-width="1.5" opacity="0.4" style="fill:rgb(0, 0, 0);stroke:rgb(124, 58, 237);color:rgb(255, 255, 255);stroke-width:1.5px;stroke-linecap:butt;stroke-linejoin:miter;opacity:0.4;font-family:&quot;Anthropic Sans&quot;, -apple-system, BlinkMacSystemFont, &quot;Segoe UI&quot;, sans-serif;font-size:16px;font-weight:400;text-anchor:start;dominant-baseline:auto"/>
  <path d="M48,632 L88,632 M48,632 L48,592" stroke="#7c3aed" stroke-width="1.5" opacity="0.4" style="fill:rgb(0, 0, 0);stroke:rgb(124, 58, 237);color:rgb(255, 255, 255);stroke-width:1.5px;stroke-linecap:butt;stroke-linejoin:miter;opacity:0.4;font-family:&quot;Anthropic Sans&quot;, -apple-system, BlinkMacSystemFont, &quot;Segoe UI&quot;, sans-serif;font-size:16px;font-weight:400;text-anchor:start;dominant-baseline:auto"/>
  <path d="M632,632 L592,632 M632,632 L632,592" stroke="#7c3aed" stroke-width="1.5" opacity="0.4" style="fill:rgb(0, 0, 0);stroke:rgb(124, 58, 237);color:rgb(255, 255, 255);stroke-width:1.5px;stroke-linecap:butt;stroke-linejoin:miter;opacity:0.4;font-family:&quot;Anthropic Sans&quot;, -apple-system, BlinkMacSystemFont, &quot;Segoe UI&quot;, sans-serif;font-size:16px;font-weight:400;text-anchor:start;dominant-baseline:auto"/>
</svg>